<svg width="110" height="46" viewBox="0 0 110 46" fill="none" xmlns="http://www.w3.org/2000/svg">
<path d="M24 4.08L19.632 28.8C19.12 31.584 17.872 33.792 15.888 35.424C13.936 37.056 11.568 37.872 8.784 37.872C6.352 37.872 4.432 37.232 3.024 35.952C1.648 34.672 0.96 32.896 0.96 30.624C0.96 29.856 1.024 29.136 1.152 28.464H5.52C5.424 28.944 5.376 29.424 5.376 29.904C5.376 31.152 5.712 32.144 6.384 32.88C7.056 33.616 8.096 33.984 9.504 33.984C11.104 33.984 12.384 33.504 13.344 32.544C14.336 31.552 14.976 30.304 15.264 28.8L19.584 4.08H24Z" fill="#766212"/>
<path d="M38.2691 37.968C36.0611 37.968 34.1091 37.52 32.4131 36.624C30.7491 35.696 29.4531 34.416 28.5251 32.784C27.5971 31.12 27.1331 29.2 27.1331 27.024C27.1331 24.048 27.8211 21.328 29.1971 18.864C30.5731 16.368 32.4611 14.4 34.8611 12.96C37.2931 11.52 39.9971 10.8 42.9731 10.8C45.1811 10.8 47.1331 11.264 48.8291 12.192C50.5571 13.088 51.8851 14.368 52.8131 16.032C53.7731 17.664 54.2531 19.584 54.2531 21.792C54.2531 24.768 53.5491 27.488 52.1411 29.952C50.7331 32.416 48.8131 34.368 46.3811 35.808C43.9491 37.248 41.2451 37.968 38.2691 37.968ZM38.7971 34.272C40.8771 34.272 42.7491 33.712 44.4131 32.592C46.0771 31.44 47.3731 29.936 48.3011 28.08C49.2611 26.192 49.7411 24.176 49.7411 22.032C49.7411 19.6 49.0371 17.744 47.6291 16.464C46.2211 15.152 44.4611 14.496 42.3491 14.496C40.2691 14.496 38.4131 15.072 36.7811 16.224C35.1491 17.344 33.8851 18.848 32.9891 20.736C32.0931 22.624 31.6451 24.656 31.6451 26.832C31.6451 29.2 32.3171 31.04 33.6611 32.352C35.0051 33.632 36.7171 34.272 38.7971 34.272Z" fill="#766212"/>
<path d="M66.6683 37.968C63.9163 37.968 61.6602 37.312 59.9002 36C58.1402 34.688 57.2603 32.928 57.2603 30.72C57.2603 30.304 57.2763 30 57.3083 29.808H61.5802C61.4522 31.184 61.8523 32.304 62.7803 33.168C63.7403 34.032 65.1162 34.464 66.9082 34.464C68.7002 34.464 70.1402 34.128 71.2282 33.456C72.3482 32.752 72.9082 31.776 72.9082 30.528C72.9082 29.472 72.4602 28.64 71.5642 28.032C70.6682 27.424 69.2922 26.768 67.4362 26.064C65.8042 25.456 64.4603 24.88 63.4043 24.336C62.3483 23.792 61.4523 23.04 60.7163 22.08C59.9803 21.088 59.6123 19.84 59.6123 18.336C59.6123 16.864 60.0282 15.552 60.8602 14.4C61.7242 13.248 62.9082 12.368 64.4122 11.76C65.9482 11.12 67.6922 10.8 69.6442 10.8C72.3322 10.8 74.5402 11.472 76.2682 12.816C77.9962 14.16 78.8603 15.92 78.8603 18.096C78.8603 18.512 78.8442 18.832 78.8122 19.056H74.6363L74.6842 18.48C74.6842 17.2 74.1883 16.192 73.1963 15.456C72.2363 14.688 70.9562 14.304 69.3562 14.304C67.7882 14.304 66.4922 14.656 65.4682 15.36C64.4762 16.064 63.9803 17.008 63.9803 18.192C63.9803 19.312 64.4443 20.192 65.3723 20.832C66.3003 21.472 67.7403 22.176 69.6923 22.944C71.3243 23.584 72.6362 24.176 73.6283 24.72C74.6202 25.232 75.4682 25.952 76.1722 26.88C76.8762 27.808 77.2282 28.976 77.2282 30.384C77.2282 31.92 76.7642 33.264 75.8363 34.416C74.9403 35.568 73.6923 36.448 72.0923 37.056C70.4923 37.664 68.6843 37.968 66.6683 37.968Z" fill="#766212"/>
<path d="M98.5624 10.8C100.77 10.8 102.674 11.232 104.274 12.096C105.906 12.928 107.138 14.112 107.97 15.648C108.834 17.152 109.266 18.88 109.266 20.832C109.266 21.504 109.186 22.32 109.026 23.28C108.898 24.112 108.69 24.976 108.402 25.872H87.3784C87.3144 26.512 87.2824 26.976 87.2824 27.264C87.2824 29.472 87.9384 31.2 89.2504 32.448C90.5944 33.664 92.3384 34.272 94.4824 34.272C96.3704 34.272 98.0184 33.84 99.4264 32.976C100.866 32.08 101.954 30.896 102.69 29.424H107.394C106.242 31.952 104.466 34.016 102.066 35.616C99.6984 37.184 96.9464 37.968 93.8104 37.968C90.5144 37.968 87.8584 37.024 85.8424 35.136C83.8584 33.216 82.8664 30.608 82.8664 27.312C82.8664 26.384 82.9624 25.392 83.1544 24.336C83.6344 21.616 84.6104 19.232 86.0824 17.184C87.5544 15.136 89.3624 13.568 91.5064 12.48C93.6824 11.36 96.0344 10.8 98.5624 10.8ZM104.61 22.704C104.706 22.064 104.754 21.472 104.754 20.928C104.754 18.88 104.098 17.296 102.786 16.176C101.506 15.056 99.8264 14.496 97.7464 14.496C95.5064 14.496 93.4744 15.232 91.6504 16.704C89.8264 18.144 88.5944 20.144 87.9544 22.704H104.61ZM104.37 3.792L93.1384 9.264L93.7144 6L105.042 0L104.37 3.792Z" fill="#766212"/>
<path d="M0 42.536H109V45.536H0V42.536Z" fill="#766212"/>
</svg>
